<svg xmlns="http://www.w3.org/2000/svg" viewBox="-1 -1 416 463">
  <path fill="#22b0d9" d="M 380,403   C 357,432 322,453 285,459   C 277,460 268,461 259,460   C 257,459 256,457 257,455   C 258,453 260,453 262,453   C 273,453 285,450 295,444   C 308,438 318,427 326,415   C 331,404 334,392 335,381   C 335,368 332,356 326,344   C 321,335 314,326 304,319   C 292,310 277,305 261,305   C 165,305 165,305 165,305   C 156,305 147,305 138,304   C 108,301 80,290 57,271   C 35,253 17,229 8,202   C -4,167 -3,129 11,95   C 27,55 61,23 102,9   C 112,5 123,2 134,1   C 139,0 144,0 149,0   C 151,0 154,-1 156,1   C 157,3 157,5 156,6   C 154,8 152,8 150,8   C 147,8 143,8 139,9   C 114,13 92,32 83,55   C 78,70 77,86 81,101   C 88,126 107,146 132,153   C 138,155 145,156 152,156   C 182,156 212,156 242,156   C 242,156 242,156 242,156   C 250,156 258,155 266,156   C 288,157 309,162 329,172   C 353,184 373,202 388,224   C 390,227 392,229 393,232   C 393,233 393,233 393,233   C 394,233 394,233 394,233   C 406,254 413,279 413,304   C 414,339 402,375 380,403   z" />
</svg>
